<?xml version="1.0" standalone="no"?>
<!DOCTYPE svg PUBLIC "-//W3C//DTD SVG 20010904//EN"
 "http://www.w3.org/TR/2001/REC-SVG-20010904/DTD/svg10.dtd">
<svg version="1.0" xmlns="http://www.w3.org/2000/svg"
 width="206.000000pt" height="206.000000pt" viewBox="0 0 206.000000 206.000000"
 preserveAspectRatio="xMidYMid meet">
<metadata>
Created by potrace 1.11, written by Peter Selinger 2001-2013
</metadata>
<g transform="translate(0.000000,206.000000) scale(0.100000,-0.100000)"
fill="#000000" stroke="none">
<path d="M1864 1455 c-4 -9 -2 -21 4 -27 15 -15 44 -1 40 19 -4 23 -36 29 -44
8z"/>
<path d="M239 1308 c-174 -126 -208 -152 -209 -162 0 -6 5 -5 12 2 7 7 20 12
30 12 10 0 18 5 18 10 0 6 7 10 15 10 8 0 15 5 15 12 0 6 3 8 6 5 4 -4 32 6
63 22 84 43 135 65 144 63 4 -1 7 2 7 7 0 11 37 6 77 -11 34 -14 31 -13 68
-23 17 -4 36 -12 43 -18 6 -5 12 -6 12 -3 0 4 10 1 23 -6 12 -6 27 -13 32 -14
6 -1 41 -14 79 -28 92 -35 104 -28 25 14 -74 39 -79 44 -74 82 4 30 -16 58
-41 58 -8 0 -14 -6 -15 -12 -1 -7 -2 -22 -3 -33 0 -11 -6 -19 -13 -18 -16 3
-161 92 -168 104 -12 18 -33 8 -146 -73z"/>
<path d="M1115 1380 c-59 -22 -59 -81 -1 -121 50 -33 63 -64 35 -80 -15 -8
-29 -7 -50 2 -39 15 -51 3 -20 -22 38 -31 89 -21 112 22 16 31 -4 70 -52 99
-28 18 -39 31 -37 45 3 23 42 33 62 16 14 -12 26 -5 26 15 0 17 -51 33 -75 24z"/>
<path d="M1308 1379 c-6 -4 -15 -6 -19 -3 -11 6 -69 -64 -70 -86 -1 -11 -2
-26 -3 -32 -4 -22 32 -84 56 -100 13 -8 42 -15 65 -15 34 0 50 6 80 32 35 30
36 34 19 41 -13 5 -21 3 -24 -4 -5 -16 -56 -42 -82 -42 -24 0 -80 51 -80 73 0
12 16 15 78 15 139 0 133 -1 122 26 -5 13 -7 26 -5 28 2 2 -6 15 -18 29 -30
36 -91 55 -119 38z m89 -55 c14 -14 23 -28 20 -30 -3 -3 -40 -7 -81 -7 -82 -2
-93 6 -56 43 29 29 84 27 117 -6z"/>
<path d="M1540 1373 c-17 -12 -24 -12 -36 -2 -8 6 -17 9 -20 6 -3 -3 -6 -53
-6 -112 -1 -90 2 -109 16 -117 14 -8 16 -3 17 29 1 127 14 173 48 173 10 0 24
6 30 14 17 20 -22 28 -49 9z"/>
<path d="M1685 1382 c-60 -13 -102 -76 -92 -139 12 -75 95 -117 162 -83 40 20
50 13 36 -24 -19 -48 -97 -63 -144 -26 -28 22 -47 26 -47 9 0 -44 113 -76 173
-48 44 20 55 54 56 187 2 119 -5 145 -28 105 -7 -14 -12 -15 -24 -5 -20 17
-67 29 -92 24z m82 -50 c26 -20 38 -85 20 -114 -32 -54 -125 -51 -153 4 -42
81 61 167 133 110z"/>
<path d="M1980 1382 c-28 -9 -50 -35 -50 -59 0 -23 15 -40 74 -87 26 -20 27
-24 15 -44 -15 -24 -39 -28 -56 -11 -7 7 -20 8 -30 5 -17 -7 -16 -9 6 -27 32
-26 67 -24 96 6 41 41 33 67 -37 119 -40 28 -47 46 -25 64 9 8 20 7 40 -3 21
-11 28 -11 36 -1 8 9 4 16 -17 26 -35 18 -35 18 -52 12z"/>
<path d="M901 1313 c-18 -38 -41 -85 -52 -106 -10 -22 -19 -45 -19 -53 0 -25
29 -3 42 32 8 23 19 34 33 35 11 0 34 2 51 3 28 2 34 -2 53 -41 19 -39 41 -57
41 -34 0 16 -103 231 -111 231 -4 0 -21 -30 -38 -67z m52 -10 c2 -10 8 -26 12
-35 6 -15 2 -18 -24 -18 -24 0 -30 4 -27 18 5 27 17 52 26 52 4 0 10 -8 13
-17z"/>
<path d="M1869 1353 c-2 -110 0 -205 5 -210 16 -16 25 19 26 97 3 131 2 140
-15 140 -10 0 -15 -10 -16 -27z"/>
<path d="M330 1215 c-7 -8 -11 -15 -9 -16 35 -7 39 -6 39 12 0 23 -13 25 -30
4z"/>
<path d="M375 1220 c-7 -12 2 -30 16 -30 5 0 9 9 9 20 0 21 -15 27 -25 10z"/>
<path d="M326 1166 c7 -19 38 -22 32 -3 -3 6 -12 13 -21 15 -12 2 -15 -1 -11
-12z"/>
<path d="M370 1165 c0 -8 6 -15 14 -15 8 0 16 7 20 15 4 10 -1 15 -14 15 -11
0 -20 -7 -20 -15z"/>
<path d="M283 1071 c-10 -6 -16 -278 -7 -318 2 -13 11 -23 19 -23 16 0 17 3
19 70 2 59 7 66 53 64 73 -2 123 45 117 113 -3 40 -19 70 -46 84 -23 12 -141
20 -155 10z m135 -57 c26 -18 30 -65 6 -89 -12 -11 -30 -15 -63 -13 l-46 3 -1
45 c0 25 2 51 4 58 6 17 73 15 100 -4z"/>
<path d="M834 972 c-59 -9 -92 -106 -59 -175 9 -19 24 -39 33 -42 82 -35 142
14 138 112 -3 76 -45 115 -112 105z m81 -82 c13 -58 -19 -120 -61 -120 -44 0
-76 78 -55 133 22 58 102 49 116 -13z"/>
<path d="M2033 967 c-6 -6 -20 -31 -33 -55 l-24 -42 -25 47 c-14 26 -34 49
-44 51 -14 3 -10 -9 19 -65 26 -49 36 -80 35 -111 0 -36 3 -43 17 -40 13 3 16
12 14 40 -2 27 7 57 33 107 19 39 31 72 26 75 -5 3 -13 0 -18 -7z"/>
<path d="M540 860 c0 -89 3 -110 14 -110 10 0 16 14 18 42 4 61 30 63 65 4 15
-24 35 -47 44 -49 20 -6 16 13 -13 55 -20 29 -23 48 -8 48 15 0 32 49 25 71
-12 37 -35 49 -91 49 l-54 0 0 -110z m110 61 c12 -23 4 -51 -16 -52 -59 -5
-59 -5 -62 34 -3 36 -3 37 32 37 25 0 38 -6 46 -19z"/>
<path d="M1035 858 c1 -62 3 -115 4 -118 6 -17 28 36 25 60 -3 28 -1 30 29 30
51 0 77 24 77 70 0 49 -27 70 -90 70 l-46 0 1 -112z m89 76 c21 -8 21 -60 0
-68 -9 -3 -26 -6 -38 -6 -19 0 -22 6 -23 40 -1 35 2 40 22 40 13 0 30 -3 39
-6z"/>
<path d="M1252 858 l3 -112 68 -1 c64 0 88 7 73 23 -4 3 -28 7 -54 8 -26 1
-50 3 -54 3 -5 1 -8 16 -8 34 0 32 1 33 42 32 31 0 44 4 46 16 2 13 -6 16 -43
14 -45 -1 -45 -1 -45 32 l0 33 54 0 c39 0 55 4 60 15 4 13 -7 15 -70 15 l-75
0 3 -112z"/>
<path d="M1476 865 c0 -67 5 -110 12 -117 13 -13 13 -12 17 32 1 17 3 36 4 44
2 29 41 10 70 -36 21 -33 35 -46 45 -42 13 5 13 8 2 19 -7 7 -19 27 -26 44
-11 27 -10 34 4 50 21 24 20 74 -2 94 -13 12 -36 17 -73 17 l-54 0 1 -105z
m113 56 c15 -27 -8 -52 -49 -54 -32 -2 -35 0 -36 28 -1 41 2 45 41 45 23 0 38
-6 44 -19z"/>
<path d="M1682 958 c3 -7 19 -14 36 -16 l31 -3 3 -97 c4 -126 22 -124 26 3 l3
95 34 0 c24 0 35 5 35 15 0 12 -16 15 -86 15 -64 0 -85 -3 -82 -12z"/>
<path d="M119 889 c-4 -80 -13 -186 -23 -270 -3 -29 -7 -28 164 -14 36 3 121
7 190 10 69 3 188 8 265 11 77 4 157 7 178 7 21 0 34 3 29 6 -6 3 -180 7 -388
9 -208 1 -380 4 -382 6 -1 2 -5 37 -7 77 -3 41 -7 94 -10 119 -6 45 -14 66
-16 39z"/>
<path d="M1279 688 c-6 -21 -2 -36 13 -50 14 -14 18 -15 18 -4 0 8 -4 18 -10
21 -5 3 -10 11 -10 17 0 6 7 5 18 -3 15 -13 16 -12 3 4 -11 14 -29 23 -32 15z"/>
<path d="M1435 663 l3 -26 -17 22 c-16 21 -19 22 -34 6 -27 -26 -18 -44 18
-35 6 2 17 3 26 2 17 -1 24 44 9 53 -5 3 -7 -7 -5 -22z m-34 -26 c-8 -8 -11
-7 -11 4 0 20 13 34 18 19 3 -7 -1 -17 -7 -23z"/>
<path d="M1484 676 c-9 -23 -1 -49 16 -53 13 -4 13 -3 0 6 -13 10 -13 12 0 21
12 8 12 10 1 10 -11 0 -11 3 -1 15 9 11 9 15 1 15 -6 0 -14 -6 -17 -14z"/>
<path d="M1760 675 c-7 -9 -8 -15 -1 -19 6 -4 8 -14 4 -24 -3 -10 2 -7 12 7
l18 24 18 -24 c14 -19 20 -22 30 -11 7 6 17 12 22 12 4 0 5 -6 1 -12 -4 -7 -3
-10 1 -5 12 10 14 47 3 47 -4 0 -8 -4 -8 -10 0 -5 -9 -14 -20 -20 -16 -9 -20
-8 -20 6 0 10 5 14 15 10 8 -3 15 0 15 5 0 7 -11 9 -25 7 -14 -3 -25 -2 -25 2
0 15 -29 19 -40 5z m30 -9 c0 -3 -4 -8 -10 -11 -5 -3 -10 -1 -10 4 0 6 5 11
10 11 6 0 10 -2 10 -4z"/>
<path d="M1975 680 c-3 -5 -1 -10 4 -10 6 0 11 5 11 10 0 6 -2 10 -4 10 -3 0
-8 -4 -11 -10z"/>
<path d="M1067 667 c4 -7 8 -16 8 -21 0 -5 6 -11 13 -14 7 -2 10 2 6 12 -9 23
9 20 24 -5 13 -20 14 -20 33 -3 16 15 19 15 19 1 0 -9 7 -14 18 -12 9 2 22 4
28 4 7 1 14 10 17 21 6 25 -18 27 -31 4 -5 -9 -15 -14 -21 -10 -6 4 -9 11 -7
15 3 3 -10 6 -27 6 -18 0 -44 3 -60 7 -20 5 -25 3 -20 -5z m83 -17 c0 -5 -7
-10 -16 -10 -8 0 -12 5 -9 10 3 6 10 10 16 10 5 0 9 -4 9 -10z"/>
<path d="M1350 665 c0 -8 4 -15 10 -15 5 0 7 7 4 15 -4 8 -8 15 -10 15 -2 0
-4 -7 -4 -15z"/>
<path d="M1526 665 c-3 -8 -1 -15 4 -15 5 0 7 -8 4 -17 -4 -11 -2 -14 3 -8 12
14 33 17 33 4 0 -8 5 -7 16 2 13 10 17 10 24 -2 7 -10 12 -11 21 -2 6 6 18 9
27 5 11 -4 14 -1 9 11 -3 9 -2 17 3 17 5 0 12 -9 15 -20 3 -11 10 -20 14 -20
17 0 28 25 20 45 -4 11 -8 15 -8 8 -1 -12 -25 -12 -37 0 -15 15 -26 6 -21 -15
5 -21 5 -21 -7 -5 -16 21 -42 22 -50 2 -3 -8 -11 -15 -17 -15 -8 0 -9 4 0 13
11 14 6 27 -10 27 -5 0 -6 -7 -3 -15 4 -10 0 -15 -11 -15 -9 0 -14 4 -10 9 3
5 1 12 -4 15 -5 3 -11 -1 -15 -9z m104 -21 c0 -8 -4 -12 -10 -9 -5 3 -10 10
-10 16 0 5 5 9 10 9 6 0 10 -7 10 -16z m90 2 c0 -11 -19 -15 -25 -6 -3 5 1 10
9 10 9 0 16 -2 16 -4z"/>
<path d="M1890 663 c0 -10 4 -25 10 -33 6 -10 9 -5 8 18 -1 33 -18 47 -18 15z"/>
<path d="M1327 651 c-3 -13 1 -21 14 -24 16 -4 17 -2 7 16 -15 30 -15 30 -21
8z"/>
<path d="M1927 663 c-12 -12 -7 -31 10 -37 9 -4 21 -2 27 5 8 8 6 10 -8 7 -10
-1 -21 3 -24 11 -3 10 2 11 19 6 13 -4 27 -13 31 -19 5 -7 8 -5 8 5 0 23 -46
39 -63 22z"/>
</g>
</svg>
